<svg width="392" height="392" viewBox="0 0 392 392" fill="none" xmlns="http://www.w3.org/2000/svg">
<path d="M347.685 12.2693H44.336C19.8841 12.2693 0 32.1469 0 56.6277V335.424C0 359.876 19.8841 379.732 44.336 379.732H347.684C372.136 379.732 391.999 359.876 391.999 335.424V56.6277C392 32.1469 372.137 12.2693 347.685 12.2693ZM253.487 78.2387C277.133 78.2387 296.31 97.4168 296.31 121.062C296.31 144.707 277.132 163.885 253.487 163.885C229.834 163.885 210.664 144.707 210.664 121.062C210.664 97.4168 229.834 78.2387 253.487 78.2387ZM333.781 338.749H195.996H64.35C52.523 338.749 47.2557 330.192 52.5873 319.635L126.08 174.07C131.405 163.515 141.553 162.573 148.74 171.964L222.639 268.538C229.826 277.931 242.388 278.73 250.703 270.315L268.781 252.008C277.089 243.593 289.329 244.635 296.109 254.32L342.923 321.19C349.69 330.89 345.608 338.749 333.781 338.749Z" fill="#DCDCDC"/>
</svg>
